<?xml version="1.0" encoding="UTF-8"?>
<svg id="_Слой_1" data-name="Слой 1" xmlns="http://www.w3.org/2000/svg" viewBox="0 0 256 256">
  <defs>
    <style>
      .cls-1, .cls-2 {
        stroke-width: 0px;
      }

      .cls-2 {
        fill: #fff;
      }
    </style>
  </defs>
  <rect class="cls-2" width="256" height="256"/>
  <path class="cls-1" d="m170.82,82.23c-5.61-11.65-14.4-19.67-27.42-21.87-6.02-1.02-12.23-1.08-18.36-1.14-14.79-.13-29.58-.07-44.37-.05v137.59c7.75.04,15.49.1,23.24.1,9.17,0,18.34.02,27.5-.27,4.83-.15,9.78-.39,14.44-1.53,15.88-3.9,28.36-19.87,29.37-36.71.62-10.32-2.6-19.34-8.66-27.51-1.98-2.66-1.97-3.06,0-5.73,9.93-13.45,11.55-27.76,4.27-42.88Zm-33.27,87.58c-1.03.24-2.09.42-3.14.42l-27.76-.06v-28.9c3.47,0,6.86-.01,10.26,0,5.92.03,11.84.04,17.76.12,7.41.1,12.98,5.26,13.77,12.67.79,7.38-3.85,14.11-10.88,15.74Zm-1.8-55.39c-9.31.32-18.64.18-27.97.23-.78,0-1.4-.09-1.4-1.16.03-9.21.02-18.42.02-27.86,4.5,0,8.79,0,13.09,0,4.69,0,9.39-.06,14.08.01,8.17.13,13.87,5.2,14.94,13.19,1.02,7.55-5.12,15.33-12.76,15.59Z"/>
</svg>